HIERARCHY
ROOT Hips
{
  OFFSET 51.931 93.9793 24.4289
  CHANNELS 6 Xposition Yposition Zposition Zrotation Xrotation Yrotation
  JOINT spine
  {
    OFFSET 0 7.4756 0.429885
    CHANNELS 3 Zrotation Xrotation Yrotation
    JOINT spine1
    {
      OFFSET 0 9.92301 0
      CHANNELS 3 Zrotation Xrotation Yrotation
      JOINT spine2
      {
        OFFSET 0 9.50804 0
        CHANNELS 3 Zrotation Xrotation Yrotation
        JOINT Neck
        {
          OFFSET 0 24.4111 1.16384
          CHANNELS 3 Zrotation Xrotation Yrotation
          JOINT Head
          {
            OFFSET 0 7.37523 0
            CHANNELS 3 Zrotation Xrotation Yrotation
            End Site
            {
              OFFSET 0 17.8522 -5.88741
            }
          }
        }
        JOINT RightShoulder
        {
          OFFSET -4.00356 10.2679 -0.557468
          CHANNELS 3 Zrotation Xrotation Yrotation
          JOINT RightArm
          {
            OFFSET 0 13.4673 0
            CHANNELS 3 Zrotation Xrotation Yrotation
            JOINT RightArmRoll
            {
              OFFSET 0 6.79858 0
              CHANNELS 3 Zrotation Xrotation Yrotation
              JOINT RightForeArm
              {
                OFFSET 0 19.8018 0
                CHANNELS 3 Zrotation Xrotation Yrotation
                JOINT RightForeArmRoll
                {
                  OFFSET 0 7.62905 0
                  CHANNELS 3 Zrotation Xrotation Yrotation
                  JOINT RightHand
                  {
                    OFFSET 0 15.3098 0
                    CHANNELS 3 Zrotation Xrotation Yrotation
                    End Site
                    {
                      OFFSET 0 0 0
                    }
                  }
                }
              }
            }
          }
        }
        JOINT LeftShoulder
        {
          OFFSET 4.00356 10.2679 -0.557468
          CHANNELS 3 Zrotation Xrotation Yrotation
          JOINT LeftArm
          {
            OFFSET 0 13.4673 0
            CHANNELS 3 Zrotation Xrotation Yrotation
            JOINT LeftArmRoll
            {
              OFFSET 0 6.79858 0
              CHANNELS 3 Zrotation Xrotation Yrotation
              JOINT LeftForeArm
              {
                OFFSET 0 19.8018 0
                CHANNELS 3 Zrotation Xrotation Yrotation
                JOINT LeftForeArmRoll
                {
                  OFFSET 0 7.62905 0
                  CHANNELS 3 Zrotation Xrotation Yrotation
                  JOINT LeftHand
                  {
                    OFFSET 0 15.3098 0
                    CHANNELS 3 Zrotation Xrotation Yrotation
                    End Site
                    {
                      OFFSET 0 0 0
                    }
                  }
                }
              }
            }
          }
        }
      }
    }
  }
  JOINT RightUpLeg
  {
    OFFSET -6.62609 -1.21505 -1.01927
    CHANNELS 3 Zrotation Xrotation Yrotation
    JOINT RightUpLegRoll
    {
      OFFSET 0 17.9517 0
      CHANNELS 3 Zrotation Xrotation Yrotation
      JOINT RightLeg
      {
        OFFSET 0 -22.2304 0
        CHANNELS 3 Zrotation Xrotation Yrotation
        JOINT RightLegRoll
        {
          OFFSET 0 22.3032 0
          CHANNELS 3 Zrotation Xrotation Yrotation
          JOINT RightFoot
          {
            OFFSET 0 18.5636 0
            CHANNELS 3 Zrotation Xrotation Yrotation
            JOINT RightToeBase
            {
              OFFSET 0 15.5183 0
              CHANNELS 3 Zrotation Xrotation Yrotation
              End Site
              {
                OFFSET 0.00657761 7.51538 -0.866263
              }
            }
          }
        }
      }
    }
  }
  JOINT LeftUpLeg
  {
    OFFSET 6.62609 -1.21505 -1.01927
    CHANNELS 3 Zrotation Xrotation Yrotation
    JOINT LeftUpLegRoll
    {
      OFFSET 0 17.9518 0
      CHANNELS 3 Zrotation Xrotation Yrotation
      JOINT LeftLeg
      {
        OFFSET 0 22.2303 0
        CHANNELS 3 Zrotation Xrotation Yrotation
        JOINT LeftLegRoll
        {
          OFFSET 0 22.5093 0
          CHANNELS 3 Zrotation Xrotation Yrotation
          JOINT LeftFoot
          {
            OFFSET 0 18.3575 0
            CHANNELS 3 Zrotation Xrotation Yrotation
            JOINT LeftToeBase
            {
              OFFSET 0 15.5183 0
              CHANNELS 3 Zrotation Xrotation Yrotation
              End Site
              {
                OFFSET -0.029478 7.51538 -0.866263
              }
            }
          }
        }
      }
    }
  }
}
MOTION
Frames: 12
Frame Time: 0.00208333
53.1566 73.4755 0.924764 -2.66911 10.8857 1.99506 0.0352832 1.43177 -0.620086 0.0963849 6.86595 -1.25988 0.111873 8.51088 -1.26369 3.84769 -29.0535 1.44046 0.955947 13.3872 1.04582 74.3033 -1.89768 -2.64738 100.519 42.0287 20.5924 1.47356e-006 3.36448e-006 -4.71564e-006 0.271586 0.010168 -1.44944 1.74865e-005 -7.56576e-006 -3.0627 8.03026 -4.95134 0.697637 -62.176 -10.9034 6.76693 -118.16 40.2063 -7.81224 -3.57944e-007 8.15872e-007 3.48168e-006 3.6277 -0.0282479 0.864161 -7.8975e-006 1.90129e-006 3.0764 -8.03008 -4.95136 -0.69764 -172.293 65.7379 0.176241 180 1.52512e-005 178.193 176.852 73.9834 178.913 7.81226e-006 -4.93471e-006 2.20591 -39.2387 76.0435 33.1166 8.52632 30.7044 -3.70271 -178.355 66.8532 -4.42646 4.54188e-006 -4.6773e-006 -1.43253 8.38403 -75.2587 9.71386 2.69273e-006 2.77701e-007 -2.31574 36.312 77.6404 -35.4157 -8.45358 29.7326 3.63518 
53.1503 73.6515 1.04207 -2.67342 10.8794 2.00531 0.0329171 1.41163 -0.619451 0.0920243 6.82569 -1.25905 0.107489 8.47062 -1.26277 3.86979 -29.0801 1.41816 0.933835 13.4298 1.0189 74.3686 -1.90117 -2.65469 100.455 41.9262 20.5201 1.47356e-006 3.36448e-006 -4.71564e-006 0.367851 0.00994712 -1.44677 1.74865e-005 -7.56576e-006 -3.06262 8.03026 -4.95134 0.697637 -62.1863 -10.9057 6.76822 -118.23 40.1699 -7.78502 -3.57944e-007 8.15872e-007 3.48168e-006 3.62849 -0.0280934 0.863284 -7.8975e-006 1.90129e-006 3.07618 -8.03008 -4.95136 -0.69764 -172.312 65.4438 0.124274 180 1.52512e-005 178.199 176.704 73.7343 179.046 7.81226e-006 -4.93471e-006 2.19109 -39.2207 76.0426 33.1117 8.52948 30.7452 -3.70459 -178.323 66.5516 -4.41491 4.54188e-006 -4.6773e-006 -1.4278 7.99227 -74.9828 9.35361 2.69273e-006 2.77701e-007 -2.30252 36.3934 77.6611 -35.4852 -8.45211 29.7127 3.63451 
53.1493 73.8075 1.17097 -2.67758 10.8726 2.01572 0.0305762 1.39131 -0.618832 0.0876987 6.78509 -1.25823 0.103141 8.43001 -1.26186 3.89082 -29.1067 1.39529 0.912437 13.4742 0.991517 74.4333 -1.90467 -2.66197 100.39 41.8216 20.4433 1.47356e-006 3.36448e-006 -4.71564e-006 0.468337 0.00973854 -1.44401 1.74865e-005 -7.56576e-006 -3.06254 8.03026 -4.95134 0.697637 -62.1971 -10.9083 6.76969 -118.301 40.1334 -7.75831 -3.57944e-007 8.15872e-007 3.48168e-006 3.62996 -0.0279366 0.862381 -7.8975e-006 1.90129e-006 3.07598 -8.03008 -4.95136 -0.69764 -172.33 65.1483 0.0719841 180 1.52513e-005 178.204 176.561 73.4819 179.174 7.81226e-006 -4.93471e-006 2.17614 -39.1981 76.0399 33.1019 8.53264 30.7858 -3.70647 -178.291 66.2486 -4.40363 4.54188e-006 -4.6773e-006 -1.42305 7.61096 -74.7033 9.00409 2.69273e-006 2.77701e-007 -2.28912 36.4707 77.6801 -35.55 -8.45064 29.6927 3.63384 
53.1455 73.9792 1.28644 -2.68144 10.8653 2.02607 0.0282522 1.3708 -0.61823 0.0833749 6.74408 -1.25739 0.0987936 8.389 -1.26094 3.91007 -29.1326 1.37184 0.892397 13.5204 0.963739 74.4971 -1.90827 -2.66919 100.324 41.7153 20.3649 1.47356e-006 3.36448e-006 -4.71564e-006 0.570411 0.00954466 -1.44124 1.74865e-005 -7.56576e-006 -3.06247 8.03026 -4.95134 0.697637 -62.2088 -10.9112 6.7713 -118.371 40.0966 -7.73249 -3.57944e-007 8.15872e-007 3.48168e-006 3.63188 -0.0277782 0.861476 -7.8975e-006 1.90129e-006 3.07579 -8.03008 -4.95136 -0.69764 -172.349 64.8515 0.0195731 180 1.52513e-005 178.21 176.423 73.226 179.297 7.81226e-006 -4.93471e-006 2.16105 -39.1705 76.0354 33.0869 8.53577 30.8259 -3.70836 -178.26 65.9441 -4.39253 4.54188e-006 -4.6773e-006 -1.41828 7.23986 -74.4205 8.66505 2.69273e-006 2.77701e-007 -2.27556 36.5433 77.6973 -35.6095 -8.44917 29.6729 3.63315 
53.1413 74.1351 1.4135 -2.6848 10.8575 2.03619 0.0259369 1.35005 -0.617649 0.0790196 6.70261 -1.25653 0.0944149 8.34753 -1.25999 3.92681 -29.1574 1.34778 0.874362 13.5684 0.935648 74.5595 -1.91202 -2.67635 100.259 41.6083 20.2875 1.47356e-006 3.36448e-006 -4.71564e-006 0.671442 0.00936782 -1.43849 1.74865e-005 -7.56576e-006 -3.06239 8.03026 -4.95134 0.697637 -62.2217 -10.9142 6.77298 -118.439 40.0594 -7.70795 -3.57944e-007 8.15872e-007 3.48168e-006 3.63397 -0.0276186 0.860591 -7.8975e-006 1.90129e-006 3.07561 -8.03008 -4.95136 -0.69764 -172.369 64.5537 -0.0327658 180 1.52514e-005 178.215 176.289 72.9664 179.416 7.81226e-006 -4.93471e-006 2.14581 -39.1376 76.029 33.0664 8.53885 30.8653 -3.71022 -178.228 65.6381 -4.38155 4.54188e-006 -4.6773e-006 -1.41351 6.87872 -74.1341 8.33628 2.69273e-006 2.77701e-007 -2.26185 36.6105 77.7126 -35.6634 -8.44771 29.6533 3.63247 
53.1316 74.3129 1.52691 -2.68751 10.8493 2.04589 0.0236219 1.32904 -0.617088 0.0745996 6.66061 -1.25564 0.0899709 8.30553 -1.259 3.94032 -29.1804 1.32308 0.858973 13.618 0.90732 74.6203 -1.91598 -2.68345 100.196 41.5012 20.2138 1.47356e-006 3.36448e-006 -4.71564e-006 0.768797 0.00921038 -1.43585 1.74865e-005 -7.56576e-006 -3.06232 8.03026 -4.95134 0.697637 -62.2361 -10.9172 6.7747 -118.506 40.0216 -7.68505 -3.57944e-007 8.15872e-007 3.48168e-006 3.63598 -0.0274584 0.85975 -7.8975e-006 1.90129e-006 3.07543 -8.03008 -4.95136 -0.69764 -172.389 64.2548 -0.0848491 180 1.52514e-005 178.221 176.16 72.7026 179.53 7.81226e-006 -4.93471e-006 2.1304 -39.0992 76.0206 33.0401 8.54185 30.9037 -3.71205 -178.197 65.3308 -4.37062 4.54188e-006 -4.6773e-006 -1.40873 6.52732 -73.8444 8.01755 2.69273e-006 2.77701e-007 -2.248 36.6719 77.7259 -35.7113 -8.44628 29.6341 3.63178 
53.1324 74.479 1.6544 -2.68939 10.8406 2.05496 0.021299 1.30773 -0.616551 0.0700817 6.61804 -1.25468 0.0854282 8.26295 -1.25796 3.94988 -29.2011 1.29772 0.846877 13.6693 0.878835 74.6788 -1.92022 -2.69047 100.138 41.3948 20.1465 1.47356e-006 3.36448e-006 -4.71564e-006 0.859846 0.0090747 -1.43336 1.74865e-005 -7.56576e-006 -3.06225 8.03026 -4.95134 0.697637 -62.2524 -10.9203 6.7764 -118.569 39.9829 -7.66419 -3.57944e-007 8.15872e-007 3.48168e-006 3.63766 -0.0272982 0.858975 -7.8975e-006 1.90129e-006 3.07525 -8.03008 -4.95136 -0.69764 -172.409 63.9549 -0.136502 180 1.52515e-005 178.227 176.037 72.4344 179.639 7.81226e-006 -4.93471e-006 2.11484 -39.0549 76.0101 33.0077 8.54475 30.9406 -3.71383 -178.166 65.0222 -4.35967 4.54188e-006 -4.6773e-006 -1.40394 6.18541 -73.5514 7.70865 2.69273e-006 2.77701e-007 -2.23401 36.7268 77.737 -35.7525 -8.44488 29.6154 3.63109 
53.1228 74.6409 1.76733 -2.69026 10.8314 2.06322 0.0189599 1.28611 -0.616039 0.0654328 6.57481 -1.25366 0.0807536 8.21973 -1.25684 3.95477 -29.2189 1.27168 0.838717 13.7221 0.85027 74.7349 -1.92481 -2.69741 100.084 41.2898 20.0884 1.47356e-006 3.36448e-006 -4.71564e-006 0.941956 0.00896311 -1.43109 1.74865e-005 -7.56576e-006 -3.06218 8.03026 -4.95134 0.697637 -62.271 -10.9233 6.77804 -118.628 39.9432 -7.64574 -3.57944e-007 8.15872e-007 3.48168e-006 3.63874 -0.0271383 0.858292 -7.8975e-006 1.90129e-006 3.07507 -8.03008 -4.95136 -0.69764 -172.431 63.6543 -0.187559 180 1.52515e-005 178.233 175.918 72.1615 179.743 7.81226e-006 -4.93471e-006 2.09909 -39.0043 75.9974 32.9688 8.54751 30.9758 -3.71556 -178.135 64.7122 -4.34865 4.54188e-006 -4.6773e-006 -1.39915 5.85277 -73.255 7.40935 2.69273e-006 2.77701e-007 -2.2199 36.7747 77.7459 -35.7867 -8.44353 29.5973 3.63041 
53.1226 74.799 1.89592 -2.68996 10.8217 2.07048 0.0165963 1.26413 -0.615554 0.0606198 6.53088 -1.25255 0.0759136 8.1758 -1.25564 3.95428 -29.2332 1.24493 0.835135 13.7765 0.821704 74.788 -1.9298 -2.70427 100.037 41.1869 20.042 1.47356e-006 3.36448e-006 -4.71564e-006 1.0125 0.00887799 -1.4291 1.74865e-005 -7.56576e-006 -3.06211 8.03026 -4.95134 0.697637 -62.2922 -10.9261 6.77956 -118.682 39.9022 -7.63008 -3.57944e-007 8.15872e-007 3.48168e-006 3.63896 -0.0269795 0.857722 -7.8975e-006 1.90129e-006 3.07488 -8.03008 -4.95136 -0.69764 -172.455 63.353 -0.23786 180 1.52516e-005 178.239 175.803 71.8836 179.843 7.81226e-006 -4.93471e-006 2.08317 -38.9473 75.9824 32.9233 8.55013 31.009 -3.71721 -178.105 64.4009 -4.3375 4.54188e-006 -4.6773e-006 -1.39436 5.52915 -72.9553 7.11944 2.69273e-006 2.77701e-007 -2.20568 36.815 77.7523 -35.8134 -8.44224 29.5801 3.62973 
53.1177 74.9706 2.00713 -2.68831 10.8116 2.07655 0.0142 1.24177 -0.615097 0.0556098 6.48619 -1.25134 0.070875 8.1311 -1.25433 3.94768 -29.2435 1.21747 0.836776 13.8324 0.793215 74.8377 -1.93526 -2.71104 99.9987 41.087 20.0101 1.47356e-006 3.36448e-006 -4.71564e-006 1.06883 0.00882167 -1.42745 1.74865e-005 -7.56576e-006 -3.06203 8.03026 -4.95134 0.697637 -62.3163 -10.9287 6.78092 -118.731 39.8599 -7.61759 -3.57944e-007 8.15872e-007 3.48168e-006 3.63807 -0.0268222 0.857288 -7.8975e-006 1.90129e-006 3.07469 -8.03008 -4.95136 -0.69764 -172.479 63.0512 -0.287256 180 1.52516e-005 178.245 175.694 71.6004 179.938 7.81226e-006 -4.93471e-006 2.06706 -38.8834 75.9651 32.8708 8.55256 31.0399 -3.71878 -178.076 64.0884 -4.32616 4.54188e-006 -4.6773e-006 -1.38958 5.21433 -72.6524 6.83869 2.69273e-006 2.77701e-007 -2.19136 36.8471 77.7562 -35.8322 -8.441 29.5637 3.62907 
53.1149 75.1336 2.13194 -2.68553 10.8012 2.08151 0.0117744 1.21901 -0.614721 0.0504046 6.4407 -1.25012 0.0656409 8.08561 -1.25301 3.93666 -29.252 1.18939 0.841306 13.892 0.7647 74.885 -1.94095 -2.71768 99.9667 40.9891 19.9895 1.47356e-006 3.36448e-006 -4.71564e-006 1.114 0.00879712 -1.42606 1.74865e-005 -7.56576e-006 -3.06196 8.03026 -4.95134 0.697637 -62.3435 -10.9311 6.78211 -118.775 39.8169 -7.60913 -3.57944e-007 8.15872e-007 3.48168e-006 3.63788 -0.0266695 0.856901 -7.8975e-006 1.90129e-006 3.07449 -8.03008 -4.95136 -0.69764 -172.505 62.7494 -0.335772 180 1.52517e-005 178.252 175.588 71.3127 -179.971 7.81226e-006 -4.93471e-006 2.05073 -38.8128 75.9453 32.8112 8.55485 31.0689 -3.72032 -178.045 63.7747 -4.31682 4.54188e-006 -4.6773e-006 -1.38479 4.90629 -72.3465 6.56536 2.69273e-006 2.77701e-007 -2.17693 36.8752 77.7585 -35.8465 -8.43977 29.5473 3.62837 
53.1042 75.31 2.24822 -2.68206 10.7908 2.08571 0.00933294 1.19589 -0.61447 0.0450471 6.39448 -1.249 0.0602557 8.03939 -1.25179 3.92364 -29.2614 1.16083 0.845851 13.9574 0.735966 74.931 -1.94658 -2.72417 99.9374 40.8915 19.9742 1.47356e-006 3.36448e-006 -4.71564e-006 1.15402 0.008804 -1.4248 1.74865e-005 -7.56576e-006 -3.06189 8.03026 -4.95134 0.697637 -62.3731 -10.9333 6.7832 -118.817 39.7745 -7.60498 -3.57944e-007 8.15872e-007 3.48168e-006 3.64033 -0.0265234 0.85645 -7.8975e-006 1.90129e-006 3.0743 -8.03008 -4.95136 -0.69764 -172.533 62.4481 -0.383653 180 1.52517e-005 178.258 175.486 71.0216 -179.883 7.81226e-006 -4.93471e-006 2.03413 -38.7361 75.9231 32.7447 8.55708 31.097 -3.7219 -178.011 63.4601 -4.31143 4.54188e-006 -4.6773e-006 -1.37999 4.60316 -72.038 6.29777 2.69273e-006 2.77701e-007 -2.1624 36.9037 77.7603 -35.86 -8.43845 29.5299 3.62758 
